<?xml version="1.0" encoding="UTF-8"?>
<svg width="32px" height="32px" viewBox="0 0 32 32" version="1.1" xmlns="http://www.w3.org/2000/svg" xmlns:xlink="http://www.w3.org/1999/xlink">
    <!-- Generator: Sketch 46.2 (44496) - http://www.bohemiancoding.com/sketch -->
    <title>icon_chrome</title>
    <desc>Created with Sketch.</desc>
    <defs></defs>
    <g id="Page-1" stroke="none" stroke-width="1" fill="none" fill-rule="evenodd">
        <g id="icon_chrome" fill-rule="nonzero" fill="#FFFFFF">
            <path d="M15.987,9.991 C19.301,9.991 21.987,12.679 21.987,15.991 C21.987,19.306 19.301,21.991 15.987,21.991 C12.675,21.991 9.987,19.305 9.987,15.991 C9.987,12.679 12.675,9.991 15.987,9.991 Z" id="Shape"></path>
            <path d="M15.987,23.992 C11.939,23.992 8.602,20.984 8.07,17.08 L2.555,7.517 L2.549,7.503 L1.932,8.394 C1.78,8.673 1.632,8.956 1.496,9.245 L1.201,9.935 C1.103,10.173 1.006,10.414 0.919,10.66 C0.821,10.933 0.736,11.209 0.655,11.486 L0.477,12.123 C0.403,12.42 0.34,12.717 0.283,13.016 L0.175,13.647 C0.131,13.94 0.097,14.231 0.071,14.522 L0.019,15.219 C0.006,15.485 0.001,15.75 0.001,16.016 C0.001,16.282 0.005,16.548 0.019,16.813 L0.071,17.51 C0.098,17.801 0.133,18.094 0.175,18.385 L0.283,19.016 C0.341,19.315 0.403,19.612 0.477,19.909 L0.655,20.546 C0.737,20.821 0.821,21.099 0.919,21.372 C1.006,21.616 1.104,21.856 1.201,22.097 C1.297,22.327 1.389,22.558 1.496,22.786 C1.632,23.075 1.78,23.356 1.933,23.638 L2.132,24.029 L2.224,24.172 C2.4,24.473 2.594,24.76 2.79,25.047 L3.104,25.514 C3.293,25.772 3.5,26.018 3.707,26.266 L4.121,26.762 C4.301,26.959 4.494,27.147 4.684,27.336 C4.874,27.527 5.061,27.723 5.259,27.9 L5.755,28.316 C6.003,28.521 6.249,28.728 6.507,28.918 L6.97,29.234 C7.258,29.431 7.547,29.625 7.845,29.8 L7.987,29.892 L8.377,30.091 C8.657,30.243 8.939,30.394 9.228,30.529 L9.311,30.572 L9.716,30.738 C10.798,31.199 11.928,31.525 13.08,31.74 L17.645,23.824 C17.11,23.931 16.556,23.992 15.987,23.992 L15.987,23.992 Z" id="Shape"></path>
            <path d="M31.933,14.901 L31.912,14.637 C31.799,13.301 31.25,11.367 30.794,10.069 L21.351,10.069 C22.966,11.532 23.987,13.639 23.987,15.991 C23.987,18.529 22.802,20.786 20.962,22.251 L15.337,32.007 C17.315,32.007 19.978,31.65 21.894,30.884 L21.959,30.863 L22.061,30.82 C22.714,30.549 23.36,30.252 23.989,29.888 C24.552,29.564 25.079,29.2 25.588,28.82 L25.617,28.797 C26.107,28.426 26.566,28.031 27.004,27.615 L27.072,27.556 L27.293,27.331 C28.261,26.362 29.092,25.292 29.77,24.138 L29.847,24.025 L29.986,23.744 C30.204,23.348 30.406,22.943 30.59,22.531 L30.826,21.976 C30.982,21.585 31.118,21.189 31.243,20.788 L31.408,20.272 C31.561,19.715 31.686,19.153 31.779,18.584 L31.818,18.26 C31.887,17.772 31.936,17.281 31.961,16.785 L31.97,16.388 C31.978,15.894 31.968,15.397 31.933,14.901 L31.933,14.901 Z" id="Shape"></path>
            <path d="M29.838,7.991 C29.503,7.411 29.128,6.87 28.734,6.348 L28.605,6.188 C28.251,5.731 27.876,5.297 27.48,4.889 L27.212,4.614 C26.777,4.186 26.326,3.78 25.853,3.409 L25.749,3.321 C25.222,2.915 24.67,2.55 24.101,2.216 L23.987,2.14 L23.554,1.915 C23.304,1.78 23.055,1.645 22.798,1.524 C22.551,1.409 22.302,1.307 22.053,1.204 L21.426,0.954 C21.123,0.845 20.817,0.753 20.51,0.659 L20,0.511 C19.666,0.425 19.329,0.357 18.993,0.292 L18.517,0.198 C18.189,0.145 17.861,0.112 17.532,0.081 L16.993,0.026 C16.711,0.008 16.43,0.01 16.146,0.006 L15.452,0.002 L14.912,0.041 C13.718,0.121 12.524,0.334 11.351,0.689 L11.108,0.755 C10.811,0.851 10.518,0.968 10.224,1.083 L9.66,1.306 C9.418,1.409 9.179,1.53 8.939,1.649 C8.707,1.763 8.474,1.878 8.246,2.005 L7.986,2.138 L7.602,2.386 C7.375,2.526 7.15,2.669 6.929,2.821 C6.713,2.972 6.5,3.126 6.292,3.284 L5.742,3.723 C5.515,3.913 5.294,4.106 5.079,4.306 L4.671,4.704 C4.434,4.942 4.202,5.184 3.983,5.434 L3.834,5.614 L8.385,13.509 C9.43,10.308 12.437,7.991 15.988,7.991 L29.838,7.991 L29.838,7.991 Z" id="Shape"></path>
        </g>
    </g>
</svg>