<?xml version="1.0" encoding="UTF-8"?>
<svg width="217px" height="250px" viewBox="0 0 217 250" version="1.1" xmlns="http://www.w3.org/2000/svg" xmlns:xlink="http://www.w3.org/1999/xlink">
    <!-- Generator: Sketch 46.2 (44496) - http://www.bohemiancoding.com/sketch -->
    <title>logo</title>
    <desc>Created with Sketch.</desc>
    <defs></defs>
    <g id="Page-1" stroke="none" stroke-width="1" fill="none" fill-rule="evenodd">
        <g id="logo">
            <path d="M117.045059,249.779604 C51.7563757,245.908352 0,191.522624 0,125 C0,55.9644063 55.7405486,0 124.5,0 C132.496845,0 140.317596,0.756980163 147.895046,2.20346477 C126.202251,26.3880691 113,58.3965908 113,93.5 C113,120.905407 121.046776,146.424478 134.898308,167.806954 C122.19692,181.051773 114,201.966445 114,225.5 C114,234.015911 115.073341,242.188894 117.045062,249.779614 Z" id="Combined-Shape" fill="#FF0000"></path>
            <path d="M116.588726,62.2151992 C117.865676,56.7496775 119.469869,51.4106594 121.379427,46.220104 C70.9606195,49.5834728 30.9781799,91.0785126 30.0176787,142.119653 C29.347286,146.649203 29,151.284045 29,156 C29,207.914766 71.0852335,250 123,250 C174.914766,250 217,207.914766 217,156 C217,104.085234 174.914766,62 123,62 C120.845205,62 118.707345,62.0725036 116.588725,62.2152044 Z" id="Combined-Shape" fill="#C50909"></path>
            <path d="M71.5027745,234.651396 C45.9047816,217.856967 29,188.902645 29,156 C29,104.085234 71.0852335,62 123,62 C159.649871,62 191.400871,82.9745586 206.90417,113.574845 C206.96785,115.208255 207,116.85019 207,118.5 C207,183.945743 156.408177,237 94,237 C86.2965712,237 78.7731823,236.191639 71.5027596,234.651393 Z" id="Combined-Shape" fill="#FF0000"></path>
            <ellipse id="Oval-4" fill="#FFFFFF" cx="83.5" cy="150" rx="7.5" ry="18"></ellipse>
            <ellipse id="Oval-4" fill="#FFFFFF" cx="183.5" cy="150" rx="7.5" ry="18"></ellipse>
            <path d="M70.6335753,185.156787 C83.8120199,207.222783 107.930308,222 135.5,222 C160.866955,222 183.311988,209.489764 197.001983,190.302407 C179.381899,199.069623 159.516725,204 138.5,204 C113.669274,204 90.4459777,197.117775 70.6335699,185.156784 Z" id="Combined-Shape" fill="#FFFFFF" transform="translate(133.817781, 203.578393) rotate(-3.000000) translate(-133.817781, -203.578393) "></path>
            <path d="M84.7501652,92.4303653 C104.872548,92.4322794 118.372238,99.3620482 118.473825,93.3751106 C118.575412,87.388173 104.294401,79.2521788 84.6383087,78.9392215 C64.9822164,78.6262642 50.6946144,86.6082736 51.312735,93.3751106 C51.9308556,100.141948 64.6277823,92.4284513 84.7501652,92.4303653 Z" id="Oval-7" fill="#FB9999" transform="translate(84.883894, 87.542860) rotate(-29.000000) translate(-84.883894, -87.542860) "></path>
        </g>
    </g>
</svg>